<svg xmlns="http://www.w3.org/2000/svg" width="1027" height="510" viewBox="0 0 1027 510" font-family="ui-monospace,'SF Mono','Cascadia Code',Menlo,Consolas,monospace"><rect width="1027" height="510" fill="#FBFCFD"/><text x="329.0" y="20" font-size="10" fill="#8B95A1" text-anchor="middle" font-weight="normal">ANTHROPIC</text><line x1="208" y1="26" x2="450" y2="26" stroke="#C9D0D7"/><text x="236.0" y="46" font-size="10" fill="#4A5460" text-anchor="middle" font-weight="normal">fable-5</text><text x="298.0" y="46" font-size="10" fill="#4A5460" text-anchor="middle" font-weight="normal">opus-4.8</text><text x="360.0" y="46" font-size="10" fill="#4A5460" text-anchor="middle" font-weight="normal">sonnet-5</text><text x="422.0" y="46" font-size="10" fill="#4A5460" text-anchor="middle" font-weight="normal">haiku-4.5</text><text x="515.0" y="20" font-size="10" fill="#8B95A1" text-anchor="middle" font-weight="normal">GOOGLE</text><line x1="456" y1="26" x2="574" y2="26" stroke="#C9D0D7"/><text x="484.0" y="46" font-size="10" fill="#4A5460" text-anchor="middle" font-weight="normal">g3.1-pro</text><text x="546.0" y="46" font-size="10" fill="#4A5460" text-anchor="middle" font-weight="normal">g3-flash</text><text x="639.0" y="20" font-size="10" fill="#8B95A1" text-anchor="middle" font-weight="normal">OPENAI</text><line x1="580" y1="26" x2="698" y2="26" stroke="#C9D0D7"/><text x="608.0" y="46" font-size="10" fill="#4A5460" text-anchor="middle" font-weight="normal">5.6-sol</text><text x="670.0" y="46" font-size="10" fill="#4A5460" text-anchor="middle" font-weight="normal">5.6-luna</text><text x="732.0" y="20" font-size="10" fill="#8B95A1" text-anchor="middle" font-weight="normal">XAI</text><line x1="704" y1="26" x2="760" y2="26" stroke="#C9D0D7"/><text x="732.0" y="46" font-size="10" fill="#4A5460" text-anchor="middle" font-weight="normal">grok-4.5</text><text x="825.0" y="20" font-size="10" fill="#8B95A1" text-anchor="middle" font-weight="normal">MOONSHOT</text><line x1="766" y1="26" x2="884" y2="26" stroke="#C9D0D7"/><text x="794.0" y="46" font-size="10" fill="#4A5460" text-anchor="middle" font-weight="normal">kimi-k3</text><text x="856.0" y="46" font-size="10" fill="#4A5460" text-anchor="middle" font-weight="normal">k2.7-code</text><text x="918.0" y="20" font-size="10" fill="#8B95A1" text-anchor="middle" font-weight="normal">ALIBABA</text><line x1="890" y1="26" x2="946" y2="26" stroke="#C9D0D7"/><text x="918.0" y="46" font-size="10" fill="#4A5460" text-anchor="middle" font-weight="normal">qwen3-next</text><text x="980.0" y="20" font-size="10" fill="#8B95A1" text-anchor="middle" font-weight="normal">DEEPSEEK</text><line x1="952" y1="26" x2="1008" y2="26" stroke="#C9D0D7"/><text x="980.0" y="46" font-size="10" fill="#4A5460" text-anchor="middle" font-weight="normal">ds-v3.2</text><text x="195" y="91" font-size="11" fill="#1A1E24" text-anchor="end" font-weight="normal">e-01 decoder round-trip</text><rect x="207" y="76" width="58" height="22" fill="#DCEFE4"/><text x="236.0" y="92" font-size="10.5" fill="#2F7D55" text-anchor="middle" font-weight="normal">3/3</text><rect x="269" y="76" width="58" height="22" fill="#DCEFE4"/><text x="298.0" y="92" font-size="10.5" fill="#2F7D55" text-anchor="middle" font-weight="normal">3/3</text><rect x="331" y="76" width="58" height="22" fill="#DCEFE4"/><text x="360.0" y="92" font-size="10.5" fill="#2F7D55" text-anchor="middle" font-weight="normal">3/3</text><rect x="393" y="76" width="58" height="22" fill="#DCEFE4"/><text x="422.0" y="92" font-size="10.5" fill="#2F7D55" text-anchor="middle" font-weight="normal">3/3</text><rect x="455" y="76" width="58" height="22" fill="#DCEFE4"/><text x="484.0" y="92" font-size="10.5" fill="#2F7D55" text-anchor="middle" font-weight="normal">3/3</text><circle cx="546.0" cy="87" r="2" fill="#C9D0D7"/><rect x="579" y="76" width="58" height="22" fill="#DCEFE4"/><text x="608.0" y="92" font-size="10.5" fill="#2F7D55" text-anchor="middle" font-weight="normal">3/3</text><rect x="641" y="76" width="58" height="22" fill="#DCEFE4"/><text x="670.0" y="92" font-size="10.5" fill="#2F7D55" text-anchor="middle" font-weight="normal">3/3</text><rect x="703" y="76" width="58" height="22" fill="#DCEFE4"/><text x="732.0" y="92" font-size="10.5" fill="#2F7D55" text-anchor="middle" font-weight="normal">4/4</text><rect x="765" y="76" width="58" height="22" fill="#DCEFE4"/><text x="794.0" y="92" font-size="10.5" fill="#2F7D55" text-anchor="middle" font-weight="normal">3/3</text><rect x="827" y="76" width="58" height="22" fill="#DCEFE4"/><text x="856.0" y="92" font-size="10.5" fill="#2F7D55" text-anchor="middle" font-weight="normal">3/3</text><rect x="889" y="76" width="58" height="22" fill="#F3E8CC"/><text x="918.0" y="92" font-size="10.5" fill="#B98A2E" text-anchor="middle" font-weight="normal">2/3</text><rect x="951" y="76" width="58" height="22" fill="#DCEFE4"/><text x="980.0" y="92" font-size="10.5" fill="#2F7D55" text-anchor="middle" font-weight="normal">3/3</text><text x="195" y="117" font-size="11" fill="#1A1E24" text-anchor="end" font-weight="normal">e-02 impossible states</text><rect x="207" y="102" width="58" height="22" fill="#DCEFE4"/><text x="236.0" y="118" font-size="10.5" fill="#2F7D55" text-anchor="middle" font-weight="normal">3/3</text><rect x="269" y="102" width="58" height="22" fill="#DCEFE4"/><text x="298.0" y="118" font-size="10.5" fill="#2F7D55" text-anchor="middle" font-weight="normal">3/3</text><rect x="331" y="102" width="58" height="22" fill="#DCEFE4"/><text x="360.0" y="118" font-size="10.5" fill="#2F7D55" text-anchor="middle" font-weight="normal">3/3</text><rect x="393" y="102" width="58" height="22" fill="#DCEFE4"/><text x="422.0" y="118" font-size="10.5" fill="#2F7D55" text-anchor="middle" font-weight="normal">3/3</text><rect x="455" y="102" width="58" height="22" fill="#DCEFE4"/><text x="484.0" y="118" font-size="10.5" fill="#2F7D55" text-anchor="middle" font-weight="normal">3/3</text><rect x="517" y="102" width="58" height="22" fill="#DCEFE4"/><text x="546.0" y="118" font-size="10.5" fill="#2F7D55" text-anchor="middle" font-weight="normal">3/3</text><rect x="579" y="102" width="58" height="22" fill="#DCEFE4"/><text x="608.0" y="118" font-size="10.5" fill="#2F7D55" text-anchor="middle" font-weight="normal">3/3</text><rect x="641" y="102" width="58" height="22" fill="#DCEFE4"/><text x="670.0" y="118" font-size="10.5" fill="#2F7D55" text-anchor="middle" font-weight="normal">3/3</text><rect x="703" y="102" width="58" height="22" fill="#DCEFE4"/><text x="732.0" y="118" font-size="10.5" fill="#2F7D55" text-anchor="middle" font-weight="normal">3/3</text><rect x="765" y="102" width="58" height="22" fill="#DCEFE4"/><text x="794.0" y="118" font-size="10.5" fill="#2F7D55" text-anchor="middle" font-weight="normal">3/3</text><rect x="827" y="102" width="58" height="22" fill="#DCEFE4"/><text x="856.0" y="118" font-size="10.5" fill="#2F7D55" text-anchor="middle" font-weight="normal">3/3</text><rect x="889" y="102" width="58" height="22" fill="#DCEFE4"/><text x="918.0" y="118" font-size="10.5" fill="#2F7D55" text-anchor="middle" font-weight="normal">3/3</text><rect x="951" y="102" width="58" height="22" fill="#DCEFE4"/><text x="980.0" y="118" font-size="10.5" fill="#2F7D55" text-anchor="middle" font-weight="normal">3/3</text><text x="195" y="143" font-size="11" fill="#1A1E24" text-anchor="end" font-weight="normal">e-06 unicode length</text><rect x="207" y="128" width="58" height="22" fill="#DCEFE4"/><text x="236.0" y="144" font-size="10.5" fill="#2F7D55" text-anchor="middle" font-weight="normal">3/3</text><rect x="269" y="128" width="58" height="22" fill="#DCEFE4"/><text x="298.0" y="144" font-size="10.5" fill="#2F7D55" text-anchor="middle" font-weight="normal">3/3</text><rect x="331" y="128" width="58" height="22" fill="#DCEFE4"/><text x="360.0" y="144" font-size="10.5" fill="#2F7D55" text-anchor="middle" font-weight="normal">3/3</text><rect x="393" y="128" width="58" height="22" fill="#DCEFE4"/><text x="422.0" y="144" font-size="10.5" fill="#2F7D55" text-anchor="middle" font-weight="normal">3/3</text><circle cx="484.0" cy="139" r="2" fill="#C9D0D7"/><circle cx="546.0" cy="139" r="2" fill="#C9D0D7"/><circle cx="608.0" cy="139" r="2" fill="#C9D0D7"/><circle cx="670.0" cy="139" r="2" fill="#C9D0D7"/><circle cx="732.0" cy="139" r="2" fill="#C9D0D7"/><circle cx="794.0" cy="139" r="2" fill="#C9D0D7"/><circle cx="856.0" cy="139" r="2" fill="#C9D0D7"/><circle cx="918.0" cy="139" r="2" fill="#C9D0D7"/><circle cx="980.0" cy="139" r="2" fill="#C9D0D7"/><text x="195" y="169" font-size="11" fill="#1A1E24" text-anchor="end" font-weight="normal">e-07 tagged-union decode</text><rect x="207" y="154" width="58" height="22" fill="#DCEFE4"/><text x="236.0" y="170" font-size="10.5" fill="#2F7D55" text-anchor="middle" font-weight="normal">3/3</text><rect x="269" y="154" width="58" height="22" fill="#DCEFE4"/><text x="298.0" y="170" font-size="10.5" fill="#2F7D55" text-anchor="middle" font-weight="normal">3/3</text><rect x="331" y="154" width="58" height="22" fill="#DCEFE4"/><text x="360.0" y="170" font-size="10.5" fill="#2F7D55" text-anchor="middle" font-weight="normal">3/3</text><rect x="393" y="154" width="58" height="22" fill="#DCEFE4"/><text x="422.0" y="170" font-size="10.5" fill="#2F7D55" text-anchor="middle" font-weight="normal">3/3</text><rect x="455" y="154" width="58" height="22" fill="#DCEFE4"/><text x="484.0" y="170" font-size="10.5" fill="#2F7D55" text-anchor="middle" font-weight="normal">3/3</text><circle cx="546.0" cy="165" r="2" fill="#C9D0D7"/><rect x="579" y="154" width="58" height="22" fill="#DCEFE4"/><text x="608.0" y="170" font-size="10.5" fill="#2F7D55" text-anchor="middle" font-weight="normal">3/3</text><circle cx="670.0" cy="165" r="2" fill="#C9D0D7"/><rect x="703" y="154" width="58" height="22" fill="#DCEFE4"/><text x="732.0" y="170" font-size="10.5" fill="#2F7D55" text-anchor="middle" font-weight="normal">3/3</text><rect x="765" y="154" width="58" height="22" fill="#DCEFE4"/><text x="794.0" y="170" font-size="10.5" fill="#2F7D55" text-anchor="middle" font-weight="normal">3/3</text><rect x="827" y="154" width="58" height="22" fill="#DCEFE4"/><text x="856.0" y="170" font-size="10.5" fill="#2F7D55" text-anchor="middle" font-weight="normal">3/3</text><rect x="889" y="154" width="58" height="22" fill="#F3E8CC"/><text x="918.0" y="170" font-size="10.5" fill="#B98A2E" text-anchor="middle" font-weight="normal">1/3</text><rect x="951" y="154" width="58" height="22" fill="#DCEFE4"/><text x="980.0" y="170" font-size="10.5" fill="#2F7D55" text-anchor="middle" font-weight="normal">3/3</text><text x="195" y="195" font-size="11" fill="#1A1E24" text-anchor="end" font-weight="normal">e-08 MUAC classify</text><rect x="207" y="180" width="58" height="22" fill="#DCEFE4"/><text x="236.0" y="196" font-size="10.5" fill="#2F7D55" text-anchor="middle" font-weight="normal">3/3</text><rect x="269" y="180" width="58" height="22" fill="#DCEFE4"/><text x="298.0" y="196" font-size="10.5" fill="#2F7D55" text-anchor="middle" font-weight="normal">3/3</text><rect x="331" y="180" width="58" height="22" fill="#DCEFE4"/><text x="360.0" y="196" font-size="10.5" fill="#2F7D55" text-anchor="middle" font-weight="normal">3/3</text><rect x="393" y="180" width="58" height="22" fill="#DCEFE4"/><text x="422.0" y="196" font-size="10.5" fill="#2F7D55" text-anchor="middle" font-weight="normal">3/3</text><circle cx="484.0" cy="191" r="2" fill="#C9D0D7"/><circle cx="546.0" cy="191" r="2" fill="#C9D0D7"/><circle cx="608.0" cy="191" r="2" fill="#C9D0D7"/><circle cx="670.0" cy="191" r="2" fill="#C9D0D7"/><circle cx="732.0" cy="191" r="2" fill="#C9D0D7"/><circle cx="794.0" cy="191" r="2" fill="#C9D0D7"/><circle cx="856.0" cy="191" r="2" fill="#C9D0D7"/><circle cx="918.0" cy="191" r="2" fill="#C9D0D7"/><circle cx="980.0" cy="191" r="2" fill="#C9D0D7"/><text x="195" y="221" font-size="11" fill="#1A1E24" text-anchor="end" font-weight="normal">b-01 write-the-E2E</text><rect x="207" y="206" width="58" height="22" fill="#DCEFE4"/><text x="236.0" y="222" font-size="10.5" fill="#2F7D55" text-anchor="middle" font-weight="normal">3/3</text><rect x="269" y="206" width="58" height="22" fill="#DCEFE4"/><text x="298.0" y="222" font-size="10.5" fill="#2F7D55" text-anchor="middle" font-weight="normal">3/3</text><rect x="331" y="206" width="58" height="22" fill="#DCEFE4"/><text x="360.0" y="222" font-size="10.5" fill="#2F7D55" text-anchor="middle" font-weight="normal">3/3</text><rect x="393" y="206" width="58" height="22" fill="#DCEFE4"/><text x="422.0" y="222" font-size="10.5" fill="#2F7D55" text-anchor="middle" font-weight="normal">3/3</text><rect x="455" y="206" width="58" height="22" fill="#DCEFE4"/><text x="484.0" y="222" font-size="10.5" fill="#2F7D55" text-anchor="middle" font-weight="normal">3/3</text><circle cx="546.0" cy="217" r="2" fill="#C9D0D7"/><rect x="579" y="206" width="58" height="22" fill="#DCEFE4"/><text x="608.0" y="222" font-size="10.5" fill="#2F7D55" text-anchor="middle" font-weight="normal">3/3</text><circle cx="670.0" cy="217" r="2" fill="#C9D0D7"/><rect x="703" y="206" width="58" height="22" fill="#DCEFE4"/><text x="732.0" y="222" font-size="10.5" fill="#2F7D55" text-anchor="middle" font-weight="normal">3/3</text><rect x="765" y="206" width="58" height="22" fill="#DCEFE4"/><text x="794.0" y="222" font-size="10.5" fill="#2F7D55" text-anchor="middle" font-weight="normal">3/3</text><rect x="827" y="206" width="58" height="22" fill="#DCEFE4"/><text x="856.0" y="222" font-size="10.5" fill="#2F7D55" text-anchor="middle" font-weight="normal">3/3</text><rect x="889" y="206" width="58" height="22" fill="#F3E8CC"/><text x="918.0" y="222" font-size="10.5" fill="#B98A2E" text-anchor="middle" font-weight="normal">2/3</text><rect x="951" y="206" width="58" height="22" fill="#DCEFE4"/><text x="980.0" y="222" font-size="10.5" fill="#2F7D55" text-anchor="middle" font-weight="normal">3/3</text><text x="195" y="247" font-size="11" fill="#1A1E24" text-anchor="end" font-weight="normal">d10-02 cache invalidation</text><rect x="207" y="232" width="58" height="22" fill="#DCEFE4"/><text x="236.0" y="248" font-size="10.5" fill="#2F7D55" text-anchor="middle" font-weight="normal">3/3</text><rect x="269" y="232" width="58" height="22" fill="#DCEFE4"/><text x="298.0" y="248" font-size="10.5" fill="#2F7D55" text-anchor="middle" font-weight="normal">3/3</text><rect x="331" y="232" width="58" height="22" fill="#DCEFE4"/><text x="360.0" y="248" font-size="10.5" fill="#2F7D55" text-anchor="middle" font-weight="normal">3/3</text><rect x="393" y="232" width="58" height="22" fill="#DCEFE4"/><text x="422.0" y="248" font-size="10.5" fill="#2F7D55" text-anchor="middle" font-weight="normal">3/3</text><rect x="455" y="232" width="58" height="22" fill="#DCEFE4"/><text x="484.0" y="248" font-size="10.5" fill="#2F7D55" text-anchor="middle" font-weight="normal">3/3</text><rect x="517" y="232" width="58" height="22" fill="#DCEFE4"/><text x="546.0" y="248" font-size="10.5" fill="#2F7D55" text-anchor="middle" font-weight="normal">3/3</text><rect x="579" y="232" width="58" height="22" fill="#DCEFE4"/><text x="608.0" y="248" font-size="10.5" fill="#2F7D55" text-anchor="middle" font-weight="normal">3/3</text><rect x="641" y="232" width="58" height="22" fill="#DCEFE4"/><text x="670.0" y="248" font-size="10.5" fill="#2F7D55" text-anchor="middle" font-weight="normal">3/3</text><rect x="703" y="232" width="58" height="22" fill="#DCEFE4"/><text x="732.0" y="248" font-size="10.5" fill="#2F7D55" text-anchor="middle" font-weight="normal">3/3</text><rect x="765" y="232" width="58" height="22" fill="#DCEFE4"/><text x="794.0" y="248" font-size="10.5" fill="#2F7D55" text-anchor="middle" font-weight="normal">3/3</text><rect x="827" y="232" width="58" height="22" fill="#DCEFE4"/><text x="856.0" y="248" font-size="10.5" fill="#2F7D55" text-anchor="middle" font-weight="normal">3/3</text><rect x="889" y="232" width="58" height="22" fill="#F3E8CC"/><text x="918.0" y="248" font-size="10.5" fill="#B98A2E" text-anchor="middle" font-weight="normal">1/3</text><rect x="951" y="232" width="58" height="22" fill="#DCEFE4"/><text x="980.0" y="248" font-size="10.5" fill="#2F7D55" text-anchor="middle" font-weight="normal">3/3</text><text x="195" y="273" font-size="11" fill="#1A1E24" text-anchor="end" font-weight="normal">d10-04 cache context</text><rect x="207" y="258" width="58" height="22" fill="#DCEFE4"/><text x="236.0" y="274" font-size="10.5" fill="#2F7D55" text-anchor="middle" font-weight="normal">3/3</text><rect x="269" y="258" width="58" height="22" fill="#DCEFE4"/><text x="298.0" y="274" font-size="10.5" fill="#2F7D55" text-anchor="middle" font-weight="normal">3/3</text><rect x="331" y="258" width="58" height="22" fill="#DCEFE4"/><text x="360.0" y="274" font-size="10.5" fill="#2F7D55" text-anchor="middle" font-weight="normal">3/3</text><rect x="393" y="258" width="58" height="22" fill="#F3E8CC"/><text x="422.0" y="274" font-size="10.5" fill="#B98A2E" text-anchor="middle" font-weight="normal">2/3</text><rect x="455" y="258" width="58" height="22" fill="#DCEFE4"/><text x="484.0" y="274" font-size="10.5" fill="#2F7D55" text-anchor="middle" font-weight="normal">3/3</text><circle cx="546.0" cy="269" r="2" fill="#C9D0D7"/><rect x="579" y="258" width="58" height="22" fill="#DCEFE4"/><text x="608.0" y="274" font-size="10.5" fill="#2F7D55" text-anchor="middle" font-weight="normal">3/3</text><circle cx="670.0" cy="269" r="2" fill="#C9D0D7"/><rect x="703" y="258" width="58" height="22" fill="#DCEFE4"/><text x="732.0" y="274" font-size="10.5" fill="#2F7D55" text-anchor="middle" font-weight="normal">3/3</text><rect x="765" y="258" width="58" height="22" fill="#DCEFE4"/><text x="794.0" y="274" font-size="10.5" fill="#2F7D55" text-anchor="middle" font-weight="normal">3/3</text><rect x="827" y="258" width="58" height="22" fill="#DCEFE4"/><text x="856.0" y="274" font-size="10.5" fill="#2F7D55" text-anchor="middle" font-weight="normal">3/3</text><rect x="889" y="258" width="58" height="22" fill="#F2DCD9"/><text x="918.0" y="274" font-size="10.5" fill="#B34A41" text-anchor="middle" font-weight="bold">0/3</text><rect x="951" y="258" width="58" height="22" fill="#DCEFE4"/><text x="980.0" y="274" font-size="10.5" fill="#2F7D55" text-anchor="middle" font-weight="normal">3/3</text><text x="195" y="299" font-size="11" fill="#1A1E24" text-anchor="end" font-weight="normal">d10-05 query access leak</text><rect x="207" y="284" width="58" height="22" fill="#DCEFE4"/><text x="236.0" y="300" font-size="10.5" fill="#2F7D55" text-anchor="middle" font-weight="normal">3/3</text><rect x="269" y="284" width="58" height="22" fill="#DCEFE4"/><text x="298.0" y="300" font-size="10.5" fill="#2F7D55" text-anchor="middle" font-weight="normal">3/3</text><rect x="331" y="284" width="58" height="22" fill="#DCEFE4"/><text x="360.0" y="300" font-size="10.5" fill="#2F7D55" text-anchor="middle" font-weight="normal">3/3</text><rect x="393" y="284" width="58" height="22" fill="#F2DCD9"/><text x="422.0" y="300" font-size="10.5" fill="#B34A41" text-anchor="middle" font-weight="bold">0/3</text><circle cx="484.0" cy="295" r="2" fill="#C9D0D7"/><circle cx="546.0" cy="295" r="2" fill="#C9D0D7"/><rect x="579" y="284" width="58" height="22" fill="#F2DCD9"/><text x="608.0" y="300" font-size="10.5" fill="#B34A41" text-anchor="middle" font-weight="bold">0/3</text><circle cx="670.0" cy="295" r="2" fill="#C9D0D7"/><circle cx="732.0" cy="295" r="2" fill="#C9D0D7"/><circle cx="794.0" cy="295" r="2" fill="#C9D0D7"/><circle cx="856.0" cy="295" r="2" fill="#C9D0D7"/><circle cx="918.0" cy="295" r="2" fill="#C9D0D7"/><circle cx="980.0" cy="295" r="2" fill="#C9D0D7"/><text x="195" y="325" font-size="11" fill="#C96A32" text-anchor="end" font-weight="bold">d7-01 menu endpoint</text><rect x="207" y="310" width="58" height="22" fill="#DCEFE4"/><text x="236.0" y="326" font-size="10.5" fill="#2F7D55" text-anchor="middle" font-weight="normal">6/6</text><rect x="269" y="310" width="58" height="22" fill="#F3E8CC"/><text x="298.0" y="326" font-size="10.5" fill="#B98A2E" text-anchor="middle" font-weight="normal">1/6</text><rect x="331" y="310" width="58" height="22" fill="#F2DCD9"/><text x="360.0" y="326" font-size="10.5" fill="#B34A41" text-anchor="middle" font-weight="bold">0/6</text><rect x="393" y="310" width="58" height="22" fill="#F2DCD9"/><text x="422.0" y="326" font-size="10.5" fill="#B34A41" text-anchor="middle" font-weight="bold">0/6</text><rect x="455" y="310" width="58" height="22" fill="#F3E8CC"/><text x="484.0" y="326" font-size="10.5" fill="#B98A2E" text-anchor="middle" font-weight="normal">1/3</text><rect x="517" y="310" width="58" height="22" fill="#F2DCD9"/><text x="546.0" y="326" font-size="10.5" fill="#B34A41" text-anchor="middle" font-weight="bold">0/3</text><rect x="579" y="310" width="58" height="22" fill="#F2DCD9"/><text x="608.0" y="326" font-size="10.5" fill="#B34A41" text-anchor="middle" font-weight="bold">0/3</text><rect x="641" y="310" width="58" height="22" fill="#F2DCD9"/><text x="670.0" y="326" font-size="10.5" fill="#B34A41" text-anchor="middle" font-weight="bold">0/3</text><rect x="703" y="310" width="58" height="22" fill="#F2DCD9"/><text x="732.0" y="326" font-size="10.5" fill="#B34A41" text-anchor="middle" font-weight="bold">0/6</text><rect x="765" y="310" width="58" height="22" fill="#F2DCD9"/><text x="794.0" y="326" font-size="10.5" fill="#B34A41" text-anchor="middle" font-weight="bold">0/6</text><rect x="827" y="310" width="58" height="22" fill="#F2DCD9"/><text x="856.0" y="326" font-size="10.5" fill="#B34A41" text-anchor="middle" font-weight="bold">0/6</text><rect x="889" y="310" width="58" height="22" fill="#F2DCD9"/><text x="918.0" y="326" font-size="10.5" fill="#B34A41" text-anchor="middle" font-weight="bold">0/6</text><rect x="951" y="310" width="58" height="22" fill="#F2DCD9"/><text x="980.0" y="326" font-size="10.5" fill="#B34A41" text-anchor="middle" font-weight="bold">0/6</text><rect x="5" y="308" width="1014" height="26" fill="none" stroke="#C96A32" stroke-width="1.5"/><text x="195" y="351" font-size="11" fill="#1A1E24" text-anchor="end" font-weight="normal">d7-03 field migration</text><rect x="207" y="336" width="58" height="22" fill="#DCEFE4"/><text x="236.0" y="352" font-size="10.5" fill="#2F7D55" text-anchor="middle" font-weight="normal">3/3</text><rect x="269" y="336" width="58" height="22" fill="#DCEFE4"/><text x="298.0" y="352" font-size="10.5" fill="#2F7D55" text-anchor="middle" font-weight="normal">3/3</text><rect x="331" y="336" width="58" height="22" fill="#DCEFE4"/><text x="360.0" y="352" font-size="10.5" fill="#2F7D55" text-anchor="middle" font-weight="normal">3/3</text><rect x="393" y="336" width="58" height="22" fill="#F3E8CC"/><text x="422.0" y="352" font-size="10.5" fill="#B98A2E" text-anchor="middle" font-weight="normal">2/3</text><circle cx="484.0" cy="347" r="2" fill="#C9D0D7"/><circle cx="546.0" cy="347" r="2" fill="#C9D0D7"/><circle cx="608.0" cy="347" r="2" fill="#C9D0D7"/><circle cx="670.0" cy="347" r="2" fill="#C9D0D7"/><circle cx="732.0" cy="347" r="2" fill="#C9D0D7"/><circle cx="794.0" cy="347" r="2" fill="#C9D0D7"/><circle cx="856.0" cy="347" r="2" fill="#C9D0D7"/><circle cx="918.0" cy="347" r="2" fill="#C9D0D7"/><circle cx="980.0" cy="347" r="2" fill="#C9D0D7"/><text x="195" y="377" font-size="11" fill="#1A1E24" text-anchor="end" font-weight="normal">d7-05 save-trigger queue</text><rect x="207" y="362" width="58" height="22" fill="#DCEFE4"/><text x="236.0" y="378" font-size="10.5" fill="#2F7D55" text-anchor="middle" font-weight="normal">3/3</text><rect x="269" y="362" width="58" height="22" fill="#DCEFE4"/><text x="298.0" y="378" font-size="10.5" fill="#2F7D55" text-anchor="middle" font-weight="normal">3/3</text><rect x="331" y="362" width="58" height="22" fill="#DCEFE4"/><text x="360.0" y="378" font-size="10.5" fill="#2F7D55" text-anchor="middle" font-weight="normal">3/3</text><rect x="393" y="362" width="58" height="22" fill="#DCEFE4"/><text x="422.0" y="378" font-size="10.5" fill="#2F7D55" text-anchor="middle" font-weight="normal">3/3</text><circle cx="484.0" cy="373" r="2" fill="#C9D0D7"/><circle cx="546.0" cy="373" r="2" fill="#C9D0D7"/><circle cx="608.0" cy="373" r="2" fill="#C9D0D7"/><circle cx="670.0" cy="373" r="2" fill="#C9D0D7"/><circle cx="732.0" cy="373" r="2" fill="#C9D0D7"/><circle cx="794.0" cy="373" r="2" fill="#C9D0D7"/><circle cx="856.0" cy="373" r="2" fill="#C9D0D7"/><circle cx="918.0" cy="373" r="2" fill="#C9D0D7"/><circle cx="980.0" cy="373" r="2" fill="#C9D0D7"/><text x="195" y="403" font-size="11" fill="#1A1E24" text-anchor="end" font-weight="normal">d7-06 node-access grants</text><rect x="207" y="388" width="58" height="22" fill="#DCEFE4"/><text x="236.0" y="404" font-size="10.5" fill="#2F7D55" text-anchor="middle" font-weight="normal">3/3</text><rect x="269" y="388" width="58" height="22" fill="#DCEFE4"/><text x="298.0" y="404" font-size="10.5" fill="#2F7D55" text-anchor="middle" font-weight="normal">3/3</text><rect x="331" y="388" width="58" height="22" fill="#DCEFE4"/><text x="360.0" y="404" font-size="10.5" fill="#2F7D55" text-anchor="middle" font-weight="normal">3/3</text><rect x="393" y="388" width="58" height="22" fill="#F3E8CC"/><text x="422.0" y="404" font-size="10.5" fill="#B98A2E" text-anchor="middle" font-weight="normal">2/3</text><circle cx="484.0" cy="399" r="2" fill="#C9D0D7"/><circle cx="546.0" cy="399" r="2" fill="#C9D0D7"/><rect x="579" y="388" width="58" height="22" fill="#DCEFE4"/><text x="608.0" y="404" font-size="10.5" fill="#2F7D55" text-anchor="middle" font-weight="normal">3/3</text><circle cx="670.0" cy="399" r="2" fill="#C9D0D7"/><circle cx="732.0" cy="399" r="2" fill="#C9D0D7"/><circle cx="794.0" cy="399" r="2" fill="#C9D0D7"/><circle cx="856.0" cy="399" r="2" fill="#C9D0D7"/><circle cx="918.0" cy="399" r="2" fill="#C9D0D7"/><circle cx="980.0" cy="399" r="2" fill="#C9D0D7"/><text x="195" y="429" font-size="11" fill="#1A1E24" text-anchor="end" font-weight="normal">d7-07 batched update</text><rect x="207" y="414" width="58" height="22" fill="#DCEFE4"/><text x="236.0" y="430" font-size="10.5" fill="#2F7D55" text-anchor="middle" font-weight="normal">3/3</text><rect x="269" y="414" width="58" height="22" fill="#DCEFE4"/><text x="298.0" y="430" font-size="10.5" fill="#2F7D55" text-anchor="middle" font-weight="normal">3/3</text><rect x="331" y="414" width="58" height="22" fill="#DCEFE4"/><text x="360.0" y="430" font-size="10.5" fill="#2F7D55" text-anchor="middle" font-weight="normal">3/3</text><rect x="393" y="414" width="58" height="22" fill="#F3E8CC"/><text x="422.0" y="430" font-size="10.5" fill="#B98A2E" text-anchor="middle" font-weight="normal">2/3</text><circle cx="484.0" cy="425" r="2" fill="#C9D0D7"/><circle cx="546.0" cy="425" r="2" fill="#C9D0D7"/><rect x="579" y="414" width="58" height="22" fill="#DCEFE4"/><text x="608.0" y="430" font-size="10.5" fill="#2F7D55" text-anchor="middle" font-weight="normal">3/3</text><circle cx="670.0" cy="425" r="2" fill="#C9D0D7"/><circle cx="732.0" cy="425" r="2" fill="#C9D0D7"/><circle cx="794.0" cy="425" r="2" fill="#C9D0D7"/><circle cx="856.0" cy="425" r="2" fill="#C9D0D7"/><circle cx="918.0" cy="425" r="2" fill="#C9D0D7"/><circle cx="980.0" cy="425" r="2" fill="#C9D0D7"/><text x="195" y="455" font-size="11" fill="#1A1E24" text-anchor="end" font-weight="normal">d7-08 multilingual field</text><rect x="207" y="440" width="58" height="22" fill="#DCEFE4"/><text x="236.0" y="456" font-size="10.5" fill="#2F7D55" text-anchor="middle" font-weight="normal">3/3</text><rect x="269" y="440" width="58" height="22" fill="#DCEFE4"/><text x="298.0" y="456" font-size="10.5" fill="#2F7D55" text-anchor="middle" font-weight="normal">3/3</text><rect x="331" y="440" width="58" height="22" fill="#DCEFE4"/><text x="360.0" y="456" font-size="10.5" fill="#2F7D55" text-anchor="middle" font-weight="normal">3/3</text><rect x="393" y="440" width="58" height="22" fill="#DCEFE4"/><text x="422.0" y="456" font-size="10.5" fill="#2F7D55" text-anchor="middle" font-weight="normal">3/3</text><circle cx="484.0" cy="451" r="2" fill="#C9D0D7"/><circle cx="546.0" cy="451" r="2" fill="#C9D0D7"/><circle cx="608.0" cy="451" r="2" fill="#C9D0D7"/><circle cx="670.0" cy="451" r="2" fill="#C9D0D7"/><circle cx="732.0" cy="451" r="2" fill="#C9D0D7"/><circle cx="794.0" cy="451" r="2" fill="#C9D0D7"/><circle cx="856.0" cy="451" r="2" fill="#C9D0D7"/><circle cx="918.0" cy="451" r="2" fill="#C9D0D7"/><circle cx="980.0" cy="451" r="2" fill="#C9D0D7"/><text x="5" y="494" font-size="10.5" fill="#8B95A1" text-anchor="start" font-weight="normal">cell = passes/trials · dot = not run · orange row = the corpus-trap task (see below)</text></svg>