<svg xmlns="http://www.w3.org/2000/svg" width="1028" height="286" viewBox="0 0 1028 286" font-family="ui-monospace,'SF Mono','Cascadia Code',Menlo,Consolas,monospace"><rect width="1028" height="286" fill="#FBFCFD"/><rect x="46" y="24.0" width="62" height="190.0" fill="#2F7D55" opacity="0.9"/><text x="77.0" y="17.0" font-size="12" fill="#2F7D55" text-anchor="middle" font-weight="bold">6/6</text><text x="77.0" y="232" font-size="10.5" fill="#4A5460" text-anchor="middle" font-weight="normal">fable-5</text><rect x="120" y="150.66666666666669" width="62" height="63.33333333333333" fill="#B98A2E" opacity="0.9"/><text x="151.0" y="143.66666666666669" font-size="12" fill="#B98A2E" text-anchor="middle" font-weight="bold">1/3</text><text x="151.0" y="232" font-size="10.5" fill="#4A5460" text-anchor="middle" font-weight="normal">g3.1-pro</text><rect x="194" y="182.33333333333334" width="62" height="31.666666666666664" fill="#B98A2E" opacity="0.9"/><text x="225.0" y="175.33333333333334" font-size="12" fill="#B98A2E" text-anchor="middle" font-weight="bold">1/6</text><text x="225.0" y="232" font-size="10.5" fill="#4A5460" text-anchor="middle" font-weight="normal">opus-4.8</text><rect x="268" y="211" width="62" height="3" fill="#B34A41" opacity="0.9"/><text x="299.0" y="204" font-size="12" fill="#B34A41" text-anchor="middle" font-weight="bold">0/6</text><text x="299.0" y="232" font-size="10.5" fill="#4A5460" text-anchor="middle" font-weight="normal">sonnet-5</text><rect x="342" y="211" width="62" height="3" fill="#B34A41" opacity="0.9"/><text x="373.0" y="204" font-size="12" fill="#B34A41" text-anchor="middle" font-weight="bold">0/6</text><text x="373.0" y="232" font-size="10.5" fill="#4A5460" text-anchor="middle" font-weight="normal">haiku-4.5</text><rect x="416" y="211" width="62" height="3" fill="#B34A41" opacity="0.9"/><text x="447.0" y="204" font-size="12" fill="#B34A41" text-anchor="middle" font-weight="bold">0/3</text><text x="447.0" y="232" font-size="10.5" fill="#4A5460" text-anchor="middle" font-weight="normal">g3-flash</text><rect x="490" y="211" width="62" height="3" fill="#B34A41" opacity="0.9"/><text x="521.0" y="204" font-size="12" fill="#B34A41" text-anchor="middle" font-weight="bold">0/3</text><text x="521.0" y="232" font-size="10.5" fill="#4A5460" text-anchor="middle" font-weight="normal">5.6-sol</text><rect x="564" y="211" width="62" height="3" fill="#B34A41" opacity="0.9"/><text x="595.0" y="204" font-size="12" fill="#B34A41" text-anchor="middle" font-weight="bold">0/3</text><text x="595.0" y="232" font-size="10.5" fill="#4A5460" text-anchor="middle" font-weight="normal">5.6-luna</text><rect x="638" y="211" width="62" height="3" fill="#B34A41" opacity="0.9"/><text x="669.0" y="204" font-size="12" fill="#B34A41" text-anchor="middle" font-weight="bold">0/3</text><text x="669.0" y="232" font-size="10.5" fill="#4A5460" text-anchor="middle" font-weight="normal">grok-4.5</text><rect x="712" y="211" width="62" height="3" fill="#B34A41" opacity="0.9"/><text x="743.0" y="204" font-size="12" fill="#B34A41" text-anchor="middle" font-weight="bold">0/3</text><text x="743.0" y="232" font-size="10.5" fill="#4A5460" text-anchor="middle" font-weight="normal">kimi-k3</text><rect x="786" y="211" width="62" height="3" fill="#B34A41" opacity="0.9"/><text x="817.0" y="204" font-size="12" fill="#B34A41" text-anchor="middle" font-weight="bold">0/3</text><text x="817.0" y="232" font-size="10.5" fill="#4A5460" text-anchor="middle" font-weight="normal">k2.7-code</text><rect x="860" y="211" width="62" height="3" fill="#B34A41" opacity="0.9"/><text x="891.0" y="204" font-size="12" fill="#B34A41" text-anchor="middle" font-weight="bold">0/3</text><text x="891.0" y="232" font-size="10.5" fill="#4A5460" text-anchor="middle" font-weight="normal">qwen3-next</text><rect x="934" y="211" width="62" height="3" fill="#B34A41" opacity="0.9"/><text x="965.0" y="204" font-size="12" fill="#B34A41" text-anchor="middle" font-weight="bold">0/3</text><text x="965.0" y="232" font-size="10.5" fill="#4A5460" text-anchor="middle" font-weight="normal">ds-v3.2</text><line x1="38" y1="214" x2="1016" y2="214" stroke="#C9D0D7"/><text x="38" y="258" font-size="11.5" fill="#4A5460" text-anchor="start" font-weight="normal">d7-01 blind pass rate. Every API-engaging failure, all 7 vendors: the same two wrong patterns. High effort: 0/21.</text></svg>